<svg width="34" height="38" viewBox="0 0 34 38" fill="none" xmlns="http://www.w3.org/2000/svg">
<path d="M12.7076 0C7.98647 0 4.14785 3.84601 4.14785 8.57017C4.14785 12.0148 6.19405 14.9846 9.13093 16.3424C3.8499 17.8853 0.00163657 22.7517 0.00163657 28.5405V32.172L0 32.1736C0.00163686 32.5356 0.29629 32.8272 0.658055 32.8255H16.712C18.1787 35.882 21.294 38 24.9034 38C29.9175 38 34 33.9198 34 28.9027C34 23.8855 29.9174 19.8055 24.9034 19.8055C23.9981 19.8055 23.124 19.9414 22.299 20.1888C20.7291 18.3837 18.6584 17.0258 16.298 16.3362C19.2282 14.9751 21.2694 12.0105 21.2694 8.57032C21.2694 3.8462 17.429 0.000153561 12.7079 0.000153561L12.7076 0ZM12.7076 1.31039C16.7215 1.31039 19.9579 4.55362 19.9579 8.56975C19.9579 12.5859 16.7216 15.8245 12.7076 15.8245C8.69381 15.8245 5.45742 12.5862 5.45742 8.56975C5.45742 4.55333 8.69373 1.31039 12.7076 1.31039ZM12.7076 17.1366C15.9865 17.1366 18.9198 18.5043 20.9955 20.7008C17.9343 22.1668 15.8129 25.2874 15.8129 28.9037C15.8129 29.8111 15.9504 30.6874 16.1992 31.5163H1.31116V28.5417C1.31116 22.2124 6.38267 17.1381 12.7076 17.1381L12.7076 17.1366ZM24.9032 21.1169C29.2099 21.1169 32.6903 24.5943 32.6903 28.9037C32.6903 33.2132 29.2101 36.6906 24.9032 36.6906C20.5964 36.6906 17.1212 33.2132 17.1212 28.9037C17.1212 24.5943 20.5965 21.1169 24.9032 21.1169ZM24.9294 23.7328H24.9278C24.6413 23.7213 24.381 23.8982 24.2844 24.1701L23.2597 27.1168L20.1462 27.1791C19.8679 27.184 19.6207 27.3642 19.534 27.6312C19.4472 27.8965 19.5372 28.1881 19.7599 28.3568L22.2481 30.2438L21.3445 33.2298V33.2282C21.2643 33.4952 21.3608 33.7834 21.5867 33.9472C21.811 34.111 22.1155 34.1143 22.343 33.9554L24.9016 32.1733L27.4635 33.9554V33.9571C27.691 34.1127 27.9922 34.1078 28.2165 33.9456C28.4408 33.7834 28.5373 33.4984 28.4604 33.2331L27.5601 30.2438L30.0483 28.3617V28.3601C30.2693 28.1913 30.3593 27.8998 30.2725 27.6361C30.1858 27.3707 29.9402 27.1889 29.662 27.184L26.5468 27.1168L25.5237 24.1701C25.4419 23.9375 25.2373 23.7721 24.9934 23.7393C24.9721 23.7344 24.9508 23.7328 24.9279 23.7311L24.9294 23.7328ZM24.9049 26.383L25.4582 27.9801C25.5482 28.2389 25.7905 28.4158 26.0655 28.419L27.7515 28.4551L26.4076 29.4756V29.4772C26.1899 29.641 26.0966 29.9244 26.1751 30.1864L26.6679 31.8097L25.2765 30.8384V30.84C25.0522 30.6844 24.7543 30.6844 24.53 30.8416L23.1435 31.8064L23.6313 30.1897V30.1881C23.7115 29.926 23.6199 29.641 23.4022 29.4739L22.055 28.4535L23.7443 28.4174H23.7426C24.016 28.4109 24.2583 28.2356 24.3483 27.9768L24.9049 26.383Z" fill="#086D46"/>
</svg>
