<svg width="44" height="38" viewBox="0 0 44 38" fill="none" xmlns="http://www.w3.org/2000/svg">
<mask id="path-1-inside-1_1_354" fill="white">
<path d="M36.2871 3.86833C36.3878 6.10237 34.657 7.99493 32.4248 8.09376C30.1907 8.19441 28.2982 6.4654 28.1975 4.2314C28.0969 1.99735 29.8277 0.1048 32.0617 0.00417454C34.2957 -0.0964506 36.1864 1.63433 36.2871 3.86833Z"/>
</mask>
<path d="M32.4248 8.09376L32.3805 7.09474L32.3798 7.09477L32.4248 8.09376ZM28.1975 4.2314L29.1965 4.1864L29.1965 4.18639L28.1975 4.2314ZM35.2881 3.91334C35.3639 5.59563 34.0604 7.02036 32.3805 7.09474L32.469 9.09278C35.2535 8.96949 37.4116 6.60911 37.2861 3.82332L35.2881 3.91334ZM32.3798 7.09477C30.6973 7.17057 29.2723 5.86853 29.1965 4.1864L27.1985 4.27639C27.324 7.06226 29.6841 9.21824 32.4698 9.09274L32.3798 7.09477ZM29.1965 4.18639C29.1208 2.50454 30.424 1.07896 32.1067 1.00316L32.0167 -0.994813C29.2314 -0.869357 27.073 1.49017 27.1985 4.2764L29.1965 4.18639ZM32.1067 1.00316C33.7879 0.927433 35.2123 2.23004 35.2881 3.91335L37.2861 3.82331C37.1606 1.03862 34.8034 -1.12033 32.0167 -0.994813L32.1067 1.00316Z" fill="#086D46" mask="url(#path-1-inside-1_1_354)"/>
<path d="M42.5179 1.94604L42.615 2.00543C43.2417 2.42522 43.3829 3.27467 42.9282 3.89154L42.9281 3.89153L42.9251 3.89569L38.8758 9.50852L38.8758 9.5085L38.8719 9.514C38.2784 10.3605 37.4653 11.0516 36.5828 11.6272C35.9918 11.9648 35.699 12.6068 35.699 13.2519V13.2521L35.7026 21.4857L35.7026 21.5326L35.7113 21.5786L38.2419 34.9217L38.2428 34.9262C38.3908 35.6692 38.085 36.408 37.5126 36.7449L37.5065 36.7485L37.5004 36.7523C37.2172 36.93 36.9416 36.9975 36.6627 36.9975C35.8806 36.9975 35.2223 36.4687 35.0842 35.7064L35.0837 35.7038L32.7832 23.3725L31.8005 23.3707L29.4532 35.702L29.4524 35.7064C29.3143 36.4687 28.656 36.9975 27.8739 36.9975C27.5972 36.9975 27.3211 36.9302 27.0352 36.7517L27.0353 36.7515L27.0236 36.7446C26.4503 36.4081 26.1457 35.6698 26.2938 34.9262L26.2947 34.9217L28.8253 21.5786L28.834 21.5324V21.4855V13.2951C28.834 12.6722 28.5241 12.0544 27.9688 11.6826L27.9584 11.6757L27.9477 11.6693C27.0926 11.1565 26.3115 10.4232 25.6544 9.54796L21.61 3.94184C21.1215 3.24242 21.3131 2.34495 22.0019 1.95186L22.0084 1.94816L22.0148 1.94427C22.5811 1.59834 23.4041 1.80174 23.8295 2.40439L23.8294 2.40442L23.8332 2.40956L27.8357 7.93083L27.8357 7.93084L27.8382 7.93427C29.4078 10.061 32.343 10.8677 34.9158 9.50638L34.9166 9.506C35.694 9.09302 36.2998 8.4779 36.7896 7.7932C36.79 7.79268 36.7904 7.79216 36.7907 7.79164L40.6994 2.41192L40.6995 2.41195L40.7035 2.40632C41.1292 1.80303 41.9504 1.59892 42.5179 1.94604Z" stroke="#086D46"/>
<path d="M18.4604 12.4114L18.4604 12.4114L23.2435 18.4825C23.2437 18.4828 23.2439 18.4831 23.2441 18.4833C23.6231 18.9702 23.2822 19.6986 22.6258 19.6986H20.5553H20.0553V20.1986V36.5793C20.0553 36.7165 19.9107 36.8611 19.7735 36.8611H16.0459C15.9086 36.8611 15.7641 36.7165 15.7641 36.5793V20.1986V19.6986H15.2641H13.1936C12.5385 19.6986 12.1959 18.9719 12.5766 18.4815L12.5774 18.4806L17.2684 12.4097C17.5754 12.0221 18.1542 12.0226 18.4604 12.4114Z" stroke="#086D46"/>
<path d="M0.660865 26.4413L0.661642 26.4403L5.35264 20.3676C5.65963 19.98 6.23836 19.9805 6.5446 20.3692C6.54461 20.3692 6.54462 20.3692 6.54463 20.3692L11.3277 26.4422C11.3279 26.4425 11.3281 26.4428 11.3283 26.4431C11.7074 26.93 11.3664 27.6583 10.71 27.6583H8.63951H8.13951V28.1583V36.6234C8.13951 36.7606 7.99493 36.9052 7.8577 36.9052H4.13011C3.99288 36.9052 3.84829 36.7606 3.84829 36.6234V28.1583V27.6583H3.34829H1.27782C0.622719 27.6583 0.280109 26.9316 0.660865 26.4413Z" stroke="#086D46"/>
</svg>
