<svg width="39" height="34" viewBox="0 0 39 34" fill="none" xmlns="http://www.w3.org/2000/svg">
<path d="M38.4099 2.9067L34.6686 1.68381C34.5489 1.64455 34.4193 1.65437 34.3094 1.71129C34.1975 1.76821 34.1131 1.86636 34.0739 1.9861L32.8765 5.6528C32.796 5.90012 32.9315 6.16509 33.1768 6.24756C33.2259 6.26326 33.275 6.27111 33.324 6.27111C33.5223 6.27111 33.7068 6.14548 33.7716 5.94723L34.6863 3.14815C34.6941 3.18545 34.6981 3.22078 34.7157 3.25611C36.7787 7.4037 31.9441 16.0639 23.6743 23.1381H17.8935V11.3645H24.3672C24.7048 13.1487 24.8913 15.0901 24.8913 17.1236C24.8913 17.6143 24.8796 18.1011 24.8599 18.5801C24.8481 18.8392 25.0503 19.061 25.3094 19.0708C25.5666 19.1002 25.7884 18.8804 25.8002 18.6213C25.8217 18.1266 25.8335 17.6261 25.8335 17.1216C25.8335 15.0881 25.6569 13.1507 25.333 11.3625H32.3308C32.5899 11.3625 32.8019 11.1505 32.8019 10.8914C32.8019 10.754 32.7391 10.6323 32.6449 10.5459C32.6684 10.4478 32.6684 10.3437 32.6213 10.2456C29.9282 4.32562 23.9863 0.501587 17.4855 0.501587C17.4718 0.501587 17.458 0.50355 17.4443 0.50355C17.4364 0.50355 17.4305 0.501587 17.4227 0.501587C17.3991 0.501587 17.3756 0.505513 17.352 0.505513C8.25022 0.578139 0.865466 8.00383 0.865466 17.1212C0.865466 21.8596 2.89708 26.3863 6.4382 29.5385C6.52849 29.619 6.64038 29.6563 6.75226 29.6563C6.88181 29.6563 7.01136 29.6033 7.10558 29.4992C7.27832 29.3049 7.26065 29.0066 7.06632 28.8338C5.54706 27.4814 4.32614 25.86 3.44284 24.0758H9.77887C10.0988 25.4655 10.513 26.7728 11.0194 27.9466C11.096 28.1252 11.2687 28.2312 11.4513 28.2312C11.5141 28.2312 11.5769 28.2194 11.6378 28.1919C11.8772 28.0899 11.9872 27.8111 11.8831 27.5736C11.4238 26.5097 11.043 25.332 10.7427 24.0757H16.9511V24.7588C16.9511 25.0179 17.1631 25.2299 17.4222 25.2299C17.6813 25.2299 17.8933 25.0179 17.8933 24.7588V24.0757H22.5297C18.3742 27.4303 14.0419 29.8897 10.2616 31.1851C10.2498 31.1891 10.238 31.193 10.2282 31.1969C6.5439 32.4551 3.3897 32.6121 1.47366 31.3932C1.25578 31.2538 0.963322 31.3186 0.823928 31.5384C0.684565 31.7583 0.749337 32.0488 0.969181 32.1882C2.01147 32.8516 3.34626 33.1696 4.89497 33.1696C6.52026 33.1696 8.38303 32.8143 10.3853 32.1469C12.5818 33.1853 14.9314 33.7231 17.3811 33.7369C17.3948 33.7369 17.4066 33.7408 17.4204 33.7408C17.4263 33.7408 17.4321 33.7388 17.438 33.7388C17.4537 33.7388 17.4694 33.7408 17.4851 33.7408C26.6498 33.7408 34.1049 26.2857 34.1049 17.1211C34.1049 15.749 33.9321 14.3868 33.6024 13.0677C35.9147 9.08696 36.743 5.44579 35.6261 2.98806L38.117 3.80266C38.3663 3.88315 38.6293 3.7477 38.7117 3.50234C38.7922 3.25305 38.6568 2.98612 38.4095 2.90562L38.4099 2.9067ZM17.8938 10.4226V1.47959C20.6693 1.84469 23.0364 5.40342 24.173 10.4226H17.8938ZM16.9516 1.47959V10.4226H10.6723C11.8069 5.40151 14.1761 1.84491 16.9516 1.47959ZM31.6558 10.4226H25.1429C24.2929 6.5145 22.7167 3.42678 20.7263 1.78964C25.4569 2.79268 29.5417 5.95687 31.6557 10.4226H31.6558ZM14.0818 1.82129C12.1091 3.46422 10.5466 6.53812 9.70261 10.4206L3.31533 10.4226C5.36262 6.11205 9.31569 2.88102 14.0819 1.82125L14.0818 1.82129ZM3.01523 23.1364C2.23008 21.2481 1.80808 19.2086 1.80808 17.124C1.80808 15.0904 2.20066 13.1491 2.90926 11.3648H9.51262C9.18874 13.151 9.01208 15.0904 9.01208 17.124C9.01208 19.2007 9.21034 21.2362 9.57936 23.1364H3.01523ZM10.5412 23.1364C10.1604 21.2442 9.95427 19.2067 9.95427 17.124C9.95427 15.0904 10.1407 13.1491 10.4784 11.3648H16.9521V23.1364H10.5412ZM24.1007 24.0786C22.9112 29.0545 20.5321 32.403 17.8938 32.7623V28.5361C19.8645 27.3172 21.8647 25.8843 23.8258 24.2433C23.8906 24.1883 23.9554 24.1334 24.0201 24.0784L24.1007 24.0786ZM13.7934 30.7759C14.8278 30.2891 15.8839 29.7258 16.9517 29.1016V32.7643C15.8466 32.6132 14.7709 31.936 13.7934 30.7759V30.7759ZM11.6754 31.6847C12.0818 31.5277 12.492 31.3569 12.9081 31.1763C13.2987 31.6651 13.709 32.0891 14.133 32.4404C13.2948 32.2559 12.4743 32.0047 11.6754 31.6847ZM20.6948 32.4699C22.6165 30.8996 24.1848 27.9572 25.0721 24.0786H31.5302C29.4221 28.3185 25.453 31.4749 20.6953 32.4699H20.6948ZM33.1629 17.122C33.1629 19.2517 32.735 21.2813 31.9616 23.1344L25.2683 23.1364C25.2801 23.0775 25.2918 23.0206 25.3036 22.9617C28.454 20.1273 31.0412 17.1121 32.8939 14.2267C33.0705 15.1787 33.1628 16.1484 33.1628 17.122L33.1629 17.122Z" fill="#086D46"/>
</svg>
